<?xml version="1.0" encoding="utf-8"?>
<!-- Generator: Adobe Illustrator 16.0.0, SVG Export Plug-In . SVG Version: 6.00 Build 0)  -->
<!DOCTYPE svg PUBLIC "-//W3C//DTD SVG 1.1//EN" "http://www.w3.org/Graphics/SVG/1.1/DTD/svg11.dtd">
<svg version="1.1" id="Layer_1" xmlns="http://www.w3.org/2000/svg" xmlns:xlink="http://www.w3.org/1999/xlink" x="0px" y="0px"
	 width="800px" height="800px" viewBox="0 0 800 800" enable-background="new 0 0 800 800" xml:space="preserve">
<g>
	<path d="M534.089,356.335c-29.324,25.569-77.765,28.878-100.462,42.646c-0.836,4.183-1.309,8.511-1.309,12.948
		c0,36.61,29.68,66.2,66.235,66.2c36.5,0,66.124-29.59,66.124-66.2C564.678,388.543,552.439,368.083,534.089,356.335z"/>
	<path d="M265.894,356.37c-18.34,11.767-30.571,32.209-30.571,55.56c0,36.61,29.681,66.2,66.253,66.2
		c36.464,0,66.127-29.59,66.127-66.2c0-4.418-0.474-8.729-1.301-12.911C343.731,385.232,295.257,381.922,265.894,356.37z"/>
	<path d="M400.002,127.495c-139.228,0-252.502,115.929-252.502,258.429c0,105.989,64.034,141.709,136.108,173.989v62.797
		c0,46.74,81.393,51.795,116.394,51.795c34.999,0,116.393-5.055,116.393-51.795v-62.814
		c72.081-32.262,136.105-68.02,136.105-173.971C652.5,243.424,539.227,127.495,400.002,127.495z M488.46,541.726v80.984
		c0,6.875-10.932,13.023-28.171,17.367v-65.961h-19.425v69.635c-9.52,1.348-19.977,2.221-31.151,2.549v-68.547h-19.424V646.3
		c-10.857-0.311-21.042-1.146-30.353-2.439v-69.744h-19.424v66.145c-17.686-4.365-28.97-10.584-28.97-17.551v-80.984
		c-80.021-35.227-136.108-60.742-136.108-155.801c0-127.269,100.553-230.495,224.567-230.495
		c124.013,0,224.564,103.226,224.564,230.495C624.566,480.983,568.48,506.481,488.46,541.726z"/>
	<polygon points="371.957,533.743 428.081,533.743 400.002,457.851 	"/>
</g>
</svg>
