<?xml version="1.0" encoding="utf-8"?>
<!-- Generator: Adobe Illustrator 16.0.0, SVG Export Plug-In . SVG Version: 6.00 Build 0)  -->
<!DOCTYPE svg PUBLIC "-//W3C//DTD SVG 1.1//EN" "http://www.w3.org/Graphics/SVG/1.1/DTD/svg11.dtd">
<svg version="1.1" id="Layer_1" xmlns="http://www.w3.org/2000/svg" xmlns:xlink="http://www.w3.org/1999/xlink" x="0px" y="0px"
	 width="800px" height="800px" viewBox="0 0 800 800" enable-background="new 0 0 800 800" xml:space="preserve">
<path d="M652.951,150.662c-1.873-11.63-11.229-20.604-22.924-21.987c-1.036-0.128-2.082-0.19-3.109-0.19
	c-10.529,0-20.188,6.312-24.313,16.205c-27.345,65.506-60.653,94.904-88.679,112.019c-37.199-11.64-83.421-15.896-113.928-15.896
	c-30.509,0-76.729,4.256-113.93,15.896c-28.024-17.114-61.334-46.513-88.677-112.019c-4.13-9.894-13.786-16.205-24.314-16.205
	c-1.027,0-2.074,0.063-3.11,0.19c-11.693,1.383-21.051,10.357-22.924,21.987c-22.516,140.091,2.883,409.785,240.924,531.943
	c3.773,1.946,7.901,2.909,12.032,2.909c4.128,0,8.255-0.963,12.027-2.909C650.088,560.447,675.477,290.753,652.951,150.662z"/>
<path fill="#FFFFFF" d="M399.998,659.164C189.646,551.209,148.153,309.85,173.068,154.846
	c29.698,71.145,67.091,107.144,110.246,130.687c32.617-12.475,80.721-18.359,116.685-18.359s84.066,5.885,116.685,18.359
	c43.155-23.543,80.547-59.542,110.245-130.687C651.852,309.85,610.359,551.209,399.998,659.164z"/>
<path d="M545.262,370.763l-3.446,4.22c-23.496,28.716-83.176,89.605-103.053,97.406l-15.104,5.931l15.95,2.979
	c9.774,1.82,19.169,2.748,27.915,2.748c25.188,0,59.134-7.873,77.801-45.41c5.558-11.148,17.225-48.504,3.566-63.817
	L545.262,370.763z"/>
<path d="M259.054,374.982l-3.446-4.22l-3.629,4.074c-13.641,15.296-5.229,50.195,0.409,61.489
	c7.11,14.311,29.316,47.61,81.885,47.61c8.548,0,17.65-0.893,27.042-2.639l15.987-2.998l-15.15-5.912
	C342.274,464.605,282.567,403.718,259.054,374.982z"/>
</svg>
