<?xml version="1.0" encoding="utf-8"?>
<!-- Generator: Adobe Illustrator 16.0.0, SVG Export Plug-In . SVG Version: 6.00 Build 0)  -->
<!DOCTYPE svg PUBLIC "-//W3C//DTD SVG 1.1//EN" "http://www.w3.org/Graphics/SVG/1.1/DTD/svg11.dtd">
<svg version="1.1" id="Layer_1" xmlns="http://www.w3.org/2000/svg" xmlns:xlink="http://www.w3.org/1999/xlink" x="0px" y="0px"
	 width="800px" height="800px" viewBox="0 0 800 800" enable-background="new 0 0 800 800" xml:space="preserve">
<path d="M352.986,186.266h-0.019c-62.006,0-119.248,26.826-153.11,71.764c-18.914,25.099-37.646,65.244-31.209,122.104
	c-32.672,3.363-61.97,22.933-79.773,53.777c-21.404,37.047-22.533,83.002-2.873,117.047c11.376,19.715,40.108,52.775,104.681,52.775
	h435.854c0.582,0,1.164,0,1.746-0.033c67.345-4.222,101.116-53.472,99.671-99.974c-0.972-31.151-16.657-56.25-40.292-68.253
	c16.704-42.812,6.538-75.437-2.664-93.068c-19.924-38.192-64.861-63.854-111.811-63.854c-20.358,0-39.019,4.783-54.786,13.639
	C489.902,219.466,419.759,186.276,352.986,186.266L352.986,186.266z"/>
<path fill="#FFFFFF" d="M352.986,214.2c71.455,0.01,141.917,42.548,149.902,134.589c12.966-29.28,40.947-42.301,70.289-42.301
	c63.535,0.009,133.47,61.042,71.338,150.192c3.59-0.653,7.02-0.981,10.293-0.981c62.751,0,66.389,114.211-28.271,120.102H190.682
	c-133.889,0-103.89-168.277-11.855-168.26c7.755,0,15.957,1.201,24.532,3.783C167.104,284.882,260.872,214.193,352.986,214.2"/>
</svg>
