<?xml version="1.0" encoding="utf-8"?>
<!-- Generator: Adobe Illustrator 16.0.0, SVG Export Plug-In . SVG Version: 6.00 Build 0)  -->
<!DOCTYPE svg PUBLIC "-//W3C//DTD SVG 1.1//EN" "http://www.w3.org/Graphics/SVG/1.1/DTD/svg11.dtd">
<svg version="1.1" id="Layer_1" xmlns="http://www.w3.org/2000/svg" xmlns:xlink="http://www.w3.org/1999/xlink" x="0px" y="0px"
	 width="40px" height="40px" viewBox="0 0 800 800" enable-background="new 0 0 800 800" xml:space="preserve">
<polygon fill="#FFFFFF" points="74.5,154.5 74.5,595.5 317.5,604.5 287.5,656.5 296.5,668.5 493.5,675.5 503.5,657.5 474.5,601.5
	721.5,592.5 721.5,149.5 "/>
<g>
	<path d="M708.622,136.323H91.377c-15.422,0-27.935,12.512-27.935,27.934v421.27c0,15.422,12.513,27.934,27.935,27.934h208.925
		l-19.171,28.846c-5.708,8.548-6.218,19.566-1.363,28.66c4.855,9.039,14.333,14.713,24.625,14.713h189.521
		c10.294,0,19.75-5.674,24.625-14.713c4.855-9.094,4.347-20.112-1.362-28.66l-19.17-28.846h210.617
		c15.422,0,27.934-12.512,27.934-27.934V164.256C736.557,148.834,724.045,136.323,708.622,136.323z M493.913,657.764h-189.52
		l29.463-44.305H464.45L493.913,657.764z M708.622,585.525H91.377v-421.27h617.245V585.525z"/>
	<path d="M679.471,189.789H118.855v368.422H679.47L679.471,189.789L679.471,189.789z M660.848,539.588h-523.37V208.412h523.37
		V539.588z"/>
</g>
</svg>
