<?xml version="1.0" encoding="utf-8"?>
<!-- Generator: Adobe Illustrator 16.0.0, SVG Export Plug-In . SVG Version: 6.00 Build 0)  -->
<!DOCTYPE svg PUBLIC "-//W3C//DTD SVG 1.1//EN" "http://www.w3.org/Graphics/SVG/1.1/DTD/svg11.dtd">
<svg version="1.1" id="Layer_1" xmlns="http://www.w3.org/2000/svg" xmlns:xlink="http://www.w3.org/1999/xlink" x="0px" y="0px"
	 width="40px" height="40px" viewBox="0 0 800 800" enable-background="new 0 0 800 800" xml:space="preserve">
<rect x="233.5" y="139.5" fill="#FFFFFF" width="331" height="524"/>
<g>
	<path d="M423.316,614.373c0,12.877-10.438,23.314-23.314,23.314c-12.878,0-23.333-10.438-23.333-23.314
		c0-12.875,10.455-23.316,23.333-23.316C412.877,591.057,423.316,601.498,423.316,614.373z"/>
	<path d="M552.547,149.055v501.91H247.453v-501.91L552.547,149.055 M552.547,121.121H247.453c-15.439,0-27.936,12.478-27.936,27.934
		v501.91c0,15.402,12.495,27.914,27.936,27.914h305.094c15.424,0,27.936-12.512,27.936-27.914v-501.91
		C580.482,133.598,567.971,121.121,552.547,121.121L552.547,121.121z"/>
	<path d="M514.448,187.721v372.457H285.533V187.721H514.448 M533.072,169.098H266.912v409.703h266.16L533.072,169.098
		L533.072,169.098z"/>
</g>
</svg>
