<?xml version="1.0" encoding="utf-8"?>
<!-- Generator: Adobe Illustrator 16.0.0, SVG Export Plug-In . SVG Version: 6.00 Build 0)  -->
<!DOCTYPE svg PUBLIC "-//W3C//DTD SVG 1.1//EN" "http://www.w3.org/Graphics/SVG/1.1/DTD/svg11.dtd">
<svg version="1.1" id="Layer_1" xmlns="http://www.w3.org/2000/svg" xmlns:xlink="http://www.w3.org/1999/xlink" x="0px" y="0px"
	 width="40px" height="40px" viewBox="0 0 800 800" enable-background="new 0 0 800 800" xml:space="preserve">
<path d="M400,151.428c-122.158,0-253.628,23.935-253.628,76.494V572.08c0,52.561,131.47,76.492,253.628,76.492
	c122.157,0,253.629-23.933,253.629-76.492V227.921C653.629,175.362,522.157,151.428,400,151.428z"/>
<path fill="#FFFFFF" d="M625.693,351.86C606.016,372.574,523.775,395.89,400,395.89c-123.776,0-206.033-23.316-225.694-44.03
	v-86.584C219.299,291.918,311.94,304.45,400,304.45c88.059,0,180.699-12.532,225.692-39.174V351.86z"/>
<path fill="#FFFFFF" d="M174.306,374.794c41.831,26.17,134.107,39.72,225.694,39.72c91.588,0,183.864-13.549,225.692-39.72v91.788
	C606.016,487.26,523.775,510.574,400,510.574c-123.776,0-206.033-23.314-225.694-43.992V374.794z"/>
<path fill="#FFFFFF" d="M400,179.362c148.91,0,225.692,34.038,225.692,48.56c0,14.53-76.782,48.594-225.692,48.594
	c-148.909,0-225.694-34.064-225.694-48.594C174.306,213.399,251.091,179.362,400,179.362z"/>
<path fill="#FFFFFF" d="M400,620.637c-148.909,0-225.694-34.045-225.694-48.557v-82.584c41.831,26.15,134.107,39.701,225.694,39.701
	c91.588,0,183.864-13.551,225.692-39.701v82.584C625.693,586.592,548.91,620.637,400,620.637z"/>
</svg>
