<?xml version="1.0" encoding="utf-8"?>
<!-- Generator: Adobe Illustrator 16.0.0, SVG Export Plug-In . SVG Version: 6.00 Build 0)  -->
<!DOCTYPE svg PUBLIC "-//W3C//DTD SVG 1.1//EN" "http://www.w3.org/Graphics/SVG/1.1/DTD/svg11.dtd">
<svg version="1.1" id="Layer_1" xmlns="http://www.w3.org/2000/svg" xmlns:xlink="http://www.w3.org/1999/xlink" x="0px" y="0px"
	 width="800px" height="800px" viewBox="0 0 800 800" enable-background="new 0 0 800 800" xml:space="preserve">
<path d="M399.99,126.094c-151.02,0-273.903,122.869-273.903,273.889c0,151.054,122.886,273.923,273.903,273.923
	c151.057,0,273.924-122.869,273.924-273.923C673.912,248.963,551.045,126.094,399.99,126.094z"/>
<path fill="#FFFFFF" d="M399.99,645.973c-135.854,0-245.972-110.139-245.972-245.99c0-135.854,110.118-245.955,245.972-245.955
	c135.854,0,245.988,110.1,245.988,245.955C645.979,535.834,535.843,645.973,399.99,645.973z"/>
<polygon points="366.819,409.295 366.819,390.671 267.357,390.671 267.357,340.839 179.88,399.983 267.357,459.16 267.357,409.295 
	"/>
<polygon points="532.642,340.839 532.642,390.671 433.18,390.671 433.18,409.295 532.642,409.295 532.642,459.16 620.117,399.983 
	"/>
<polygon points="399.99,366.845 459.169,279.371 409.303,279.371 409.303,179.889 390.68,179.889 390.68,279.371 340.828,279.371 
	"/>
<polygon points="399.99,433.154 340.828,520.629 390.68,520.629 390.68,620.111 409.303,620.111 409.303,520.629 459.169,520.629 
	"/>
</svg>
