<?xml version="1.0" encoding="utf-8"?>
<!-- Generator: Adobe Illustrator 16.0.0, SVG Export Plug-In . SVG Version: 6.00 Build 0)  -->
<!DOCTYPE svg PUBLIC "-//W3C//DTD SVG 1.1//EN" "http://www.w3.org/Graphics/SVG/1.1/DTD/svg11.dtd">
<svg version="1.1" id="Layer_1" xmlns="http://www.w3.org/2000/svg" xmlns:xlink="http://www.w3.org/1999/xlink" x="0px" y="0px"
	 width="800px" height="800px" viewBox="0 0 800 800" enable-background="new 0 0 800 800" xml:space="preserve">
<path d="M711.776,358.152c-14.803-41.375-110.48-89.241-139.452-102.918c-2.547-1.199-5.092-2.383-7.64-3.547
	c-37.863-69.018-98.843-109.9-164.731-109.9c-65.907,0-126.868,40.883-164.731,109.9c-2.51,1.146-5.021,2.311-7.565,3.512
	c-74.91,35.39-159.678,86.912-138.599,131.523c4.764,10.057,15.967,22.042,42.319,22.042c19.223,0,43.884-6.058,66.361-13.24
	c-0.072,3.164-0.128,6.33-0.128,9.477c0,145.144,90.771,263.212,202.343,263.212c111.573,0,202.359-118.068,202.359-263.212
	c0-3.146-0.036-6.313-0.146-9.477c22.497,7.183,47.158,13.24,66.362,13.24c26.391,0,37.573-12.002,42.32-22.079
	C713.741,380.612,716.25,370.683,711.776,358.152z"/>
<path fill="#FFFFFF" d="M685.588,374.793c-1.928,4.109-7.911,6.036-17.06,6.036c-20.387,0-56.469-9.674-98.261-26.624l-0.201-0.618
	c2.766,16.55,4.313,33.735,4.313,51.414c0,125.704-73.137,228.073-165.114,234.642v-62.524
	c34.427-4.021,63.288-29.592,70.335-64.127l-18.241-3.709c-5.918,28.989-31.744,50.03-61.405,50.03s-55.485-21.041-61.405-50.03
	l-18.24,3.709c7.046,34.534,35.908,60.106,70.335,64.127v62.524c-91.959-6.567-165.098-108.938-165.098-234.642
	c0-17.679,1.547-34.864,4.294-51.414l-0.2,0.618c-41.775,16.95-77.856,26.624-98.262,26.624c-9.13,0-15.113-1.927-17.06-6.036
	c-7.493-15.858,48.559-58.088,125.178-94.299c5.399-2.527,10.692-4.964,15.967-7.291c31.372-62.434,84.386-103.481,144.491-103.481
	c60.123,0,113.119,41.048,144.491,103.481c5.274,2.327,10.604,4.764,15.949,7.291C637.068,316.705,693.1,358.935,685.588,374.793z"
	/>
<path d="M317.932,325.907c-12.895,0-23.351,10.439-23.351,23.314c0,12.894,10.456,23.314,23.351,23.314
	c12.857,0,23.314-10.421,23.314-23.314C341.246,336.347,330.789,325.907,317.932,325.907z"/>
<path d="M482.01,325.907c-12.876,0-23.333,10.439-23.333,23.314c0,12.894,10.457,23.314,23.333,23.314s23.313-10.421,23.313-23.314
	C505.323,336.347,494.886,325.907,482.01,325.907z"/>
</svg>
